HIERARCHY
ROOT SpineBase
{
  OFFSET 0.000000 0.000000 0.000000
  CHANNELS 6 Xposition Yposition Zposition Zrotation Xrotation Yrotation
  JOINT SpineMid
  {
    OFFSET 0.000000 32.025407 0.000000
    CHANNELS 3 Zrotation Xrotation Yrotation
    JOINT SpineShoulder
    {
      OFFSET 0.131518 23.698015 -0.845319
      CHANNELS 3 Zrotation Xrotation Yrotation
      JOINT Neck
      {
        OFFSET 0.113147 7.821605 -0.612582
        CHANNELS 3 Zrotation Xrotation Yrotation
        JOINT Head
        {
          OFFSET -5.970129 14.151950 -1.425043
          CHANNELS 3 Zrotation Xrotation Yrotation
          End Site
          {
            OFFSET 0 0 0
          }
        }
      }
      JOINT ShoulderLeft
      {
        OFFSET -16.794153 -6.096629 6.813455
        CHANNELS 3 Zrotation Xrotation Yrotation
        JOINT ElbowLeft
        {
          OFFSET -0.888112 -26.514412 2.606717
          CHANNELS 3 Zrotation Xrotation Yrotation
          JOINT WristLeft
          {
            OFFSET 4.681111 -18.506338 -12.161109
            CHANNELS 3 Zrotation Xrotation Yrotation
            JOINT HandLeft
            {
              OFFSET 2.635191 -3.815243 -1.600124
              CHANNELS 3 Zrotation Xrotation Yrotation
              JOINT HandTipLeft
              {
                OFFSET 2.902293 -5.799094 -1.316715
                CHANNELS 3 Zrotation Xrotation Yrotation
                End Site
                {
                  OFFSET 0 0 0
                }
              }
              JOINT ThumbLeft
              {
                OFFSET 1.825556 -4.202616 2.346701
                CHANNELS 3 Zrotation Xrotation Yrotation
                End Site
                {
                  OFFSET 0 0 0
                }
              }
            }
          }
        }
      }
      JOINT ShoulderRight
      {
        OFFSET 15.429361 -3.069139 -7.501985
        CHANNELS 3 Zrotation Xrotation Yrotation
        JOINT ElbowRight
        {
          OFFSET 7.949244 -25.531338 -2.250017
          CHANNELS 3 Zrotation Xrotation Yrotation
          JOINT WristRight
          {
            OFFSET -2.110348 -24.750420 -4.846928
            CHANNELS 3 Zrotation Xrotation Yrotation
            JOINT HandRight
            {
              OFFSET -3.392338 -7.817947 -1.237944
              CHANNELS 3 Zrotation Xrotation Yrotation
              JOINT HandTipRight
              {
                OFFSET -1.561474 -7.430008 -1.388575
                CHANNELS 3 Zrotation Xrotation Yrotation
                End Site
                {
                  OFFSET 0 0 0
                }
              }
              JOINT ThumbRight
              {
                OFFSET -2.831021 2.659739 -2.749198
                CHANNELS 3 Zrotation Xrotation Yrotation
                End Site
                {
                  OFFSET 0 0 0
                }
              }
            }
          }
        }
      }
    }
  }
  JOINT HipLeft
  {
    OFFSET -6.190307 0.103974 -1.267389
    CHANNELS 3 Zrotation Xrotation Yrotation
    JOINT KneeLeft
    {
      OFFSET 3.094653 -35.615536 6.330591
      CHANNELS 3 Zrotation Xrotation Yrotation
      JOINT AnkleLeft
      {
        OFFSET 4.638078 -34.830686 9.814045
        CHANNELS 3 Zrotation Xrotation Yrotation
        JOINT FootLeft
        {
          OFFSET 0.033650 -8.372839 -4.964364
          CHANNELS 3 Zrotation Xrotation Yrotation
          End Site
          {
            OFFSET 0 0 0
          }
        }
      }
    }
  }
  JOINT HipRight
  {
    OFFSET 7.659849 1.746318 -6.007582
    CHANNELS 3 Zrotation Xrotation Yrotation
    JOINT KneeRight
    {
      OFFSET 9.589234 -33.327985 0.949305
      CHANNELS 3 Zrotation Xrotation Yrotation
      JOINT AnkleRight
      {
        OFFSET 4.060053 -37.708363 9.304109
        CHANNELS 3 Zrotation Xrotation Yrotation
        JOINT FootRight
        {
          OFFSET -1.744688 -7.897709 -5.024216
          CHANNELS 3 Zrotation Xrotation Yrotation
          End Site
          {
            OFFSET 0 0 0
          }
        }
      }
    }
  }
}
MOTION
Frames: 7
Frame Time: 0.033333
-59.767476 81.782835 304.638092 3.177310 -0.657199 18.639644 -0.459275 -0.228673 -18.504100 -0.170395 -0.463937 0.134704 -9.441698 -5.490410 -4.149555 0.000000 0.000000 0.000000 -72.781571 38.063350 19.351506 159.259794 62.807859 -55.120016 4.896526 1.305737 40.910175 2.834954 12.082901 2.140942 0.000000 0.000000 0.000000 0.000000 0.000000 0.000000 -27.488637 72.555286 44.047707 -133.722764 49.408793 -29.091301 12.791114 -5.940882 -11.212029 -16.080487 -2.920368 2.441571 0.000000 0.000000 0.000000 0.000000 0.000000 0.000000 -5.414286 3.369928 -18.936094 2.335323 -0.000850 0.395876 -4.771128 8.290038 3.560827 0.000000 0.000000 0.000000 -5.584165 3.422147 -18.315671 3.276403 -0.014109 -0.014686 -7.952511 27.585202 0.367090 0.000000 0.000000 0.000000
-59.691556 81.656543 304.492906 3.025305 -0.867250 17.288936 -0.563638 -0.126142 -17.158817 -0.168790 -0.381223 0.119729 -11.388964 -2.789337 -3.111633 0.000000 0.000000 0.000000 -68.942125 38.767884 18.604157 148.695785 66.600519 -49.499728 3.701465 5.020342 40.379749 1.638129 11.986525 0.764068 0.000000 0.000000 0.000000 0.000000 0.000000 0.000000 -46.538180 69.900202 59.174758 -113.347936 50.962694 -32.893934 4.330859 -5.524449 -14.347457 -14.262978 14.442964 32.092218 0.000000 0.000000 0.000000 0.000000 0.000000 0.000000 -5.253953 3.135442 -17.585758 2.173919 0.111145 0.360500 -1.320448 0.497998 1.343592 0.000000 0.000000 0.000000 -5.561856 3.546500 -16.933150 3.412724 -0.066729 -0.024197 -3.667165 16.681389 -1.090903 0.000000 0.000000 0.000000
-59.609018 81.550288 304.424669 2.846179 -1.021949 16.433961 -0.616735 -0.014843 -16.311461 -0.147073 -0.285858 0.106484 -13.282280 -0.061674 -1.888961 0.000000 0.000000 0.000000 -65.112585 39.277688 17.635449 138.447171 69.289203 -43.858453 -6.179441 6.728868 37.914651 4.922630 12.602715 -0.261273 0.000000 0.000000 0.000000 0.000000 0.000000 0.000000 -47.547374 66.375540 57.553959 -99.613738 48.971877 -31.203651 4.425871 8.757357 -5.429296 -11.970791 18.138117 40.569632 0.000000 0.000000 0.000000 0.000000 0.000000 0.000000 -5.112977 3.017292 -16.739265 2.097427 0.185233 0.341279 -1.728127 -0.052545 1.640375 0.000000 0.000000 0.000000 -5.476116 3.675013 -16.044964 3.436861 -0.974199 -0.151807 -1.871819 9.168004 -0.652997 0.000000 0.000000 0.000000
-59.499697 81.505626 304.367339 2.612116 -1.160664 15.976772 -0.663630 0.035412 -15.862853 -0.127139 -0.214844 0.093404 -14.365118 2.984367 -0.320096 0.000000 0.000000 0.000000 -60.304293 38.205700 15.418423 127.114307 71.764413 -38.344874 -7.209682 3.979922 37.674870 3.426731 22.426072 -5.659075 0.000000 0.000000 0.000000 0.000000 0.000000 0.000000 -45.840150 60.847221 52.002853 -89.419761 44.767503 -26.125246 13.747424 29.901850 7.172267 -13.974150 10.383767 28.734882 0.000000 0.000000 0.000000 0.000000 0.000000 0.000000 -4.975745 2.989973 -16.300541 2.162128 0.244063 0.354089 -3.402904 4.179031 2.751472 0.000000 0.000000 0.000000 -5.403518 3.760316 -15.578228 3.649339 -0.178474 -0.051644 -0.469796 0.850489 -0.188042 0.000000 0.000000 0.000000
-59.365495 81.445994 304.313372 2.370267 -1.201506 15.754826 -0.673439 0.081447 -15.652448 -0.095545 -0.137954 0.081591 -14.590079 5.474023 1.098963 0.000000 0.000000 0.000000 -59.100901 40.893626 16.654831 102.566820 74.454324 -17.155446 -6.117481 1.227050 37.964800 2.545876 35.309283 -11.540513 0.000000 0.000000 0.000000 0.000000 0.000000 0.000000 -42.510977 56.209739 45.983065 -83.772839 42.117535 -19.799535 18.736827 24.279113 0.418268 -13.080102 18.844909 36.820065 0.000000 0.000000 0.000000 0.000000 0.000000 0.000000 -4.889403 2.877277 -16.112948 2.320415 0.416974 0.403765 -3.459017 4.305506 2.744995 0.000000 0.000000 0.000000 -5.438711 3.730121 -15.374283 3.902386 -0.072991 -0.024309 0.190526 -4.158835 0.502459 0.000000 0.000000 0.000000
-59.261206 81.455095 304.331335 2.076232 -1.228793 16.276959 -0.590748 0.141044 -16.187533 -0.059341 -0.063961 0.071541 -13.744350 7.310347 2.208294 0.000000 0.000000 0.000000 -55.827394 42.080900 16.164454 80.605100 73.335251 0.333133 -13.769604 0.645390 34.857932 2.239166 11.866621 -3.437349 0.000000 0.000000 0.000000 0.000000 0.000000 0.000000 -39.890987 52.624965 41.534058 -82.516094 39.306453 -16.054879 19.027761 15.289922 -5.229469 -12.322344 26.328978 42.421111 0.000000 0.000000 0.000000 0.000000 0.000000 0.000000 -4.692940 3.017583 -16.654289 2.549654 0.397898 0.457024 -2.833117 3.352626 2.263977 0.000000 0.000000 0.000000 -5.329133 3.709684 -15.923804 4.099429 0.068270 0.007464 -0.373604 -5.424506 1.111854 0.000000 0.000000 0.000000
-59.170478 81.586413 304.330705 1.821826 -1.178870 16.966220 -0.436823 0.181645 -16.888220 -0.035513 0.002699 0.065155 -13.019380 7.766436 2.546155 0.000000 0.000000 0.000000 -49.447126 41.231426 13.401194 58.914500 70.806106 14.119139 -15.415765 2.039921 34.095258 -1.793791 5.686905 -6.348567 0.000000 0.000000 0.000000 0.000000 0.000000 0.000000 -34.247814 48.269583 34.645583 -82.094904 38.008241 -8.698940 21.358442 9.777256 -8.520026 -12.024834 30.072447 42.403838 0.000000 0.000000 0.000000 0.000000 0.000000 0.000000 -4.564704 3.138689 -17.367787 2.770113 0.322958 0.499341 -2.087981 3.177673 1.771567 0.000000 0.000000 0.000000 -5.248387 3.559865 -16.668632 4.267476 0.260176 0.056821 -2.190041 -1.215354 1.264588 0.000000 0.000000 0.000000
